<svg id="图层_1" data-name="图层 1" xmlns="http://www.w3.org/2000/svg" viewBox="0 0 396.61 110"><defs><style>.cls-1{fill:#fccb00;}.cls-2{fill:#4b4948;}.cls-3{fill:#fff;}</style></defs><title>logo</title><rect class="cls-1" width="110" height="110" rx="19.33" ry="19.33"/><path class="cls-2" d="M181,364.53h5.11a1.87,1.87,0,0,1,.73,1.83v1.1q0,35.06-4.38,51.86-6.21-1.1-6.21-1.83,4-19,4-45.65V364.9A1.06,1.06,0,0,1,181,364.53Zm29.22-27.39,0.73,0.73V343a0.33,0.33,0,0,1,.37.37q-0.74.37-13.15,1.46v8.4h13.51c0.48,0,.73.13,0.73,0.37v5.48c0,0.25-.25.37-0.73,0.37H198.2V419a0.33,0.33,0,0,1-.37.37h-5.48A0.32,0.32,0,0,1,192,419V359.42H177.75a0.32,0.32,0,0,1-.37-0.37v-5.48a0.32,0.32,0,0,1,.37-0.37H192v-8a126.19,126.19,0,0,0-13.15.73,60.92,60.92,0,0,1-.73-6.21Q178.11,339.34,210.25,337.14Zm-5.11,27.39H211a0.33,0.33,0,0,1,.37.37v53c0,0.49-.13.73-0.37,0.73h-5.84c-0.25,0-.37-0.25-0.37-0.73v-53A0.32,0.32,0,0,1,205.14,364.53Zm19.36,25.93q5.84,1.1,5.84,1.83-4.75,19-13.51,25.57a10.05,10.05,0,0,1-3.29,1.46V419A156.65,156.65,0,0,0,224.5,390.46ZM249.33,336q5.84,0,8.77,7.3v33.6q0,7.67-7.67,9.86a2.89,2.89,0,0,1-1.83.37H227.42q-6.94,0-9.5-7.67V345.17q0-6.21,7.67-9.13h23.74Zm-25.2,11v29.22q0,4.38,2.92,4.38H249c1.46,0,2.43-1,2.92-2.92V345.9q0-3.65-4.38-3.65h-19Q224.13,342.25,224.13,347Zm27,43.1q8.77,24.11,9.86,27.76-5.85,2.19-6.21,2.19-9.5-27.39-9.5-27.76Q246,391.56,251.16,390.1Z" transform="translate(-50.32 -321.7)"/><path class="cls-2" d="M270.15,352.11H300.1a1.09,1.09,0,0,1,.37.73V358c0,0.49-.13.73-0.37,0.73H288.78v60.63a0.33,0.33,0,0,1-.37.37h-5.48a0.32,0.32,0,0,1-.37-0.37V358.69H270.15c-0.25,0-.37-0.24-0.37-0.73v-5.11C269.79,352.36,269.91,352.11,270.15,352.11Zm3.65,11.32h5.48a1.08,1.08,0,0,1,.37.73q0,1.46.37,5.11a162.08,162.08,0,0,1-5.48,43.46q-2.56,5.11-3.65,5.48,2.55-19,2.56-51.5l-0.37-2.92Zm-0.73-26.3H299a1.09,1.09,0,0,1,.37.73v5.48a0.32,0.32,0,0,1-.37.37H273.07a0.32,0.32,0,0,1-.37-0.37v-5.48C272.71,337.38,272.83,337.14,273.07,337.14Zm19,26.3h5.48a1.06,1.06,0,0,1,.73.73q0,3.65,1.46,55.15l-0.37.37h-5.48c-0.49,0-.73-0.13-0.73-0.37L291.7,363.8Zm13.51-27.76h47.85a0.33,0.33,0,0,1,.37.37v5.48a0.32,0.32,0,0,1-.37.37H305.58a0.32,0.32,0,0,1-.37-0.37V336A0.32,0.32,0,0,1,305.58,335.68Zm39.81,40.54q5.84,0,8.77,7.67v25.57q0,6.93-7.67,9.5H313.25q-5.48,0-8-7.67V385q0-6.57,7.67-8.77h32.51Zm-1.46-29.95q7.3,0,8,9.13v6.94a8.54,8.54,0,0,1-6.21,8.77H314.35q-5.12,0-7.3-6.94V355q0-6.57,6.94-8.77h29.95Zm-32.51,39.81v8a0.32,0.32,0,0,0,.37.37H326.4V382.43H314C312.52,382.43,311.66,383.65,311.42,386.08Zm0,15v7.3q0,4.38,3.29,4.38H326.4V400.69H311.79A0.32,0.32,0,0,0,311.42,401.05Zm2.19-46.38v8a1.94,1.94,0,0,0,2.19,2.19H343.2c1.7,0,2.56-.73,2.56-2.19V355a2,2,0,0,0-1.46-2.19H314.71A1.69,1.69,0,0,0,313.62,354.67Zm19,27.76v12.05h15a0.32,0.32,0,0,0,.37-0.37v-6.57q0-5.11-2.92-5.11H332.61Zm0,18.26v12.05h11.69c2.43,0,3.65-1.59,3.65-4.75v-6.94a0.33,0.33,0,0,0-.37-0.37h-15Z" transform="translate(-50.32 -321.7)"/><path class="cls-2" d="M376.07,335.68h5.48c0.49,0,.73.13,0.73,0.37v11.69h6.94a1.08,1.08,0,0,1,.37.73v5.48a0.32,0.32,0,0,1-.37.37h-6.94v25.2l7.3-4h0.73a46.86,46.86,0,0,0,2.56,5.48q-10.6,5.85-10.59,6.21V408q0,8.4-9.13,11.32a13,13,0,0,1-3.65.37h-3.65a0.32,0.32,0,0,1-.37-0.37v-5.48c0-.49.12-0.73,0.37-0.73h4.38q4.38,0,5.48-4.38V390.46h-0.37q-9.5,5.12-9.86,5.11l-2.92-5.11q13.15-7.3,13.15-7.67V354.3H364.38a0.32,0.32,0,0,1-.37-0.37v-5.48c0-.49.12-0.73,0.37-0.73h11.32V336A0.32,0.32,0,0,1,376.07,335.68Zm29.22,0.73h29.58q6.57,0,9.13,8a12.25,12.25,0,0,1,.37,2.92v8.77q0,8-7.3,10.59a7.58,7.58,0,0,1-2.92.37h-17.9a0.32,0.32,0,0,1-.37-0.37v-5.48a0.32,0.32,0,0,1,.37-0.37h18.26q3.29-.73,3.29-3.65v-11c0-2.19-1.22-3.41-3.65-3.65H407.48q-4.38.37-4.38,3.29v25.57h42.37q0,2.56-10.23,20.45l-5.11,7.67q2.55,1.83,16.8,15.34a24.58,24.58,0,0,1-4,4.38h-0.37l-16.44-15Q413,418.59,406.38,418.59v-0.37q11.69-9.13,15.71-17.9l-19-17.9V419a0.33,0.33,0,0,1-.37.37h-5.48c-0.49,0-.73-0.13-0.73-0.37V347.36q0-7.67,6.94-10.59A11.36,11.36,0,0,1,405.29,336.41Zm2.19,41.27V378q1.82,1.1,18.26,17.17A91.57,91.57,0,0,0,436,377.68H407.48Z" transform="translate(-50.32 -321.7)"/><path class="cls-3" d="M101,355.22l0.61-2.93A73.83,73.83,0,0,0,116.24,350q-1.83,5.61-2.93,9.88L110,373.16q10.49,0,15.86-5.25a17,17,0,0,0,5.37-12.57,10,10,0,0,0-4-8.42q-4-3-11.29-3a43.89,43.89,0,0,0-21.29,5.55Q84.52,355,79.64,363.34t-4.88,15.55a17.93,17.93,0,0,0,.79,4.94q0.79,2.75,4.7,5.55,4.15,2.93,4.15,5a4,4,0,0,1-.79,2.07,2.54,2.54,0,0,1-2.26,1.22q-3.29,0-6.89-4.94t-3.6-12.5q0-9.64,6-19.28A42.08,42.08,0,0,1,94,345.71a52.27,52.27,0,0,1,23.91-5.61q10.61,0,16.23,4.27t5.61,10.49a16.16,16.16,0,0,1-3.84,10.61q-3.84,4.64-11.28,7.2,7.2,1,10.86,4.94a13.93,13.93,0,0,1,3.66,9.82q0,10.61-9.21,18.12a31.91,31.91,0,0,1-20.68,7.5q-3.66,0-10.25-.61a42.75,42.75,0,0,0-5.12-.24,63.36,63.36,0,0,0-13.3,1.1L81.47,410q6.1-.37,8.78-2.87t5.12-11.9l8.78-34.53a13.55,13.55,0,0,0,.49-3.05Q104.65,355,101,355.22ZM109,376.7l-2.93,12q-3.78,15.25-7.69,19.4a41.22,41.22,0,0,0,9.52,1.22q10.37,0,15.55-6.65t5.19-13.85a11.83,11.83,0,0,0-3.48-8.72Q121.73,376.57,109,376.7Z" transform="translate(-50.32 -321.7)"/></svg>